<?xml version="1.0" standalone="no"?>
<!DOCTYPE svg PUBLIC "-//W3C//DTD SVG 20010904//EN"
 "http://www.w3.org/TR/2001/REC-SVG-20010904/DTD/svg10.dtd">
<svg version="1.0" xmlns="http://www.w3.org/2000/svg"
 width="200.000000pt" height="200.000000pt" viewBox="0 0 200.000000 200.000000"
 preserveAspectRatio="xMidYMid meet">
<metadata>
Created by potrace 1.11, written by Peter Selinger 2001-2013
</metadata>
<g transform="translate(0.000000,200.000000) scale(0.100000,-0.100000)"
fill="#000000" stroke="none">
<path d="M1075 1301 c-26 -42 -207 -580 -201 -596 3 -10 15 -15 28 -13 20 3
35 37 125 288 56 157 101 294 100 305 -2 22 -41 33 -52 16z"/>
<path d="M407 1113 c-166 -87 -192 -108 -167 -138 7 -8 67 -43 134 -77 66 -34
141 -72 165 -84 48 -25 71 -19 71 17 0 14 -36 37 -145 92 l-145 72 145 74
c145 73 163 89 133 119 -7 7 -14 12 -17 12 -4 0 -81 -40 -174 -87z"/>
<path d="M1403 1193 c-7 -2 -13 -15 -13 -28 0 -20 21 -34 145 -96 l145 -74
-145 -72 c-109 -55 -145 -78 -145 -92 0 -36 23 -42 71 -17 24 12 99 50 165 84
67 34 127 69 134 77 25 30 -1 51 -168 138 -93 48 -171 87 -173 86 -2 0 -10 -3
-16 -6z"/>
</g>
</svg>
